<?xml version="1.0" standalone="no"?>
<!DOCTYPE svg PUBLIC "-//W3C//DTD SVG 20010904//EN"
 "http://www.w3.org/TR/2001/REC-SVG-20010904/DTD/svg10.dtd">
<svg version="1.0" xmlns="http://www.w3.org/2000/svg"
 width="224.000000pt" height="260.000000pt" viewBox="0 0 224.000000 260.000000"
 preserveAspectRatio="xMidYMid meet">

<g transform="translate(0.000000,260.000000) scale(0.100000,-0.100000)"
fill="#000000" stroke="none">
<path d="M1090 2453 c-23 -8 -60 -45 -75 -73 -14 -28 -34 -140 -38 -215 l-2
-50 -13 30 c-42 100 -110 175 -160 175 -95 0 -126 -117 -81 -306 l21 -88 -65
-58 c-155 -138 -218 -328 -196 -585 15 -165 55 -266 152 -388 48 -60 96 -98
53 -42 -28 37 -56 115 -56 160 0 15 -4 27 -10 27 -5 0 -10 -13 -10 -30 0 -46
-15 -36 -45 31 -46 103 -65 200 -65 334 0 157 31 270 103 374 31 45 123 141
136 141 4 0 17 -13 29 -30 26 -35 54 -38 128 -14 46 16 102 48 115 66 3 5 19
2 35 -7 16 -8 52 -15 80 -15 56 0 155 26 166 44 6 8 13 8 28 -2 11 -7 54 -15
96 -19 68 -5 78 -4 105 16 l30 23 72 -74 c46 -47 83 -96 104 -138 49 -101 83
-234 51 -202 -17 17 -103 15 -139 -3 -16 -9 -43 -34 -59 -57 -59 -81 -31 -211
54 -251 39 -19 112 -20 161 -3 18 6 23 0 38 -41 45 -125 -4 -255 -125 -335
-114 -76 -301 -119 -518 -120 -128 -1 -196 8 -310 43 -101 31 -97 22 -103 217
-1 34 -5 62 -9 62 -16 0 -19 -74 -7 -135 12 -64 12 -66 -10 -81 l-23 -16 33
-20 c40 -25 190 -74 252 -83 41 -6 47 -10 47 -31 0 -14 6 -40 14 -58 28 -66
116 -52 116 19 0 37 23 67 44 59 8 -3 16 -23 20 -44 6 -39 43 -80 72 -80 29 0
54 39 54 85 0 49 -13 41 120 75 290 75 424 251 350 460 -12 33 -19 82 -20 123
0 38 -7 123 -16 190 -25 191 -76 294 -203 407 l-70 63 3 61 c4 69 -15 211 -34
247 -33 64 -107 79 -152 32 -14 -16 -32 -45 -39 -65 -7 -21 -16 -38 -21 -38
-4 0 -10 17 -14 38 -4 20 -19 65 -35 99 -37 84 -96 119 -159 96z m112 -73 c40
-46 71 -151 83 -281 8 -84 0 -116 -36 -134 -57 -30 -113 -11 -130 44 -17 57
-23 254 -9 309 19 77 57 103 92 62z m298 -125 c11 -22 15 -64 15 -155 0 -121
-1 -125 -24 -136 -21 -11 -74 -5 -88 10 -24 23 -12 245 16 294 18 33 61 26 81
-13z m-616 -18 c38 -46 106 -208 106 -255 0 -42 -58 -80 -104 -68 -35 9 -65
88 -89 238 -14 87 -1 123 41 114 15 -4 35 -17 46 -29z m831 -787 c8 -16 15
-38 15 -50 0 -40 -28 -80 -57 -80 -42 0 -63 26 -63 78 0 54 21 82 61 82 21 0
32 -7 44 -30z m55 -139 c13 -26 3 -51 -21 -51 -14 0 -19 7 -19 29 0 25 5 32
27 40 1 1 7 -8 13 -18z m-405 -649 c-2 -26 -4 -50 -4 -54 -1 -5 -17 -8 -36 -8
-29 0 -37 5 -45 26 -17 44 -12 72 13 76 76 11 76 11 72 -40z m-198 30 c8 -5
10 -22 6 -50 -5 -39 -8 -42 -38 -42 -35 0 -55 28 -55 75 0 22 4 25 38 25 20 0
42 -4 49 -8z"/>
<path d="M988 1531 c-46 -15 -83 -47 -106 -94 -42 -84 -18 -181 59 -236 36
-27 50 -31 106 -31 36 0 76 6 91 14 168 88 117 342 -71 352 -29 2 -64 -1 -79
-5z m87 -97 c31 -33 33 -82 4 -118 -16 -21 -29 -26 -64 -26 -36 0 -48 5 -69
31 -33 39 -33 69 0 108 35 42 93 44 129 5z m85 -174 c0 -32 -22 -45 -51 -30
-39 21 -12 74 32 63 13 -4 19 -14 19 -33z"/>
<path d="M1469 1094 c-12 -15 -10 -16 18 -10 36 8 50 -6 27 -28 -22 -23 -60
-31 -139 -30 -92 1 -119 8 -135 39 -17 32 -25 24 -21 -21 2 -24 -2 -36 -13
-40 -20 -8 -21 -24 -1 -24 8 0 20 8 26 18 10 16 24 18 128 14 97 -3 122 0 151
15 19 10 36 26 38 36 8 41 -51 64 -79 31z"/>
</g>
</svg>
