<svg version="1.1" id="Layer_1" xmlns="http://www.w3.org/2000/svg" xmlns:xlink="http://www.w3.org/1999/xlink" x="0px" y="0px"
	 width="100%" viewBox="0 0 224 260" enable-background="new 0 0 224 260" xml:space="preserve">
<path fill="#000000" opacity="1.000000" stroke="none" 
	d="
M1.000000,97.000000 
	C1.000000,64.666672 1.000000,32.833336 1.000000,1.000004 
	C75.666664,1.000003 150.333328,1.000003 225.000000,1.000001 
	C225.000000,87.666656 225.000000,174.333313 225.000000,261.000000 
	C150.333344,261.000000 75.666702,261.000000 1.000024,261.000000 
	C1.000000,206.500000 1.000000,152.000000 1.000000,97.000000 
M131.376785,33.934914 
	C130.933090,33.976212 130.489410,34.017509 129.939728,33.357399 
	C129.217636,31.877300 128.495544,30.397202 127.824059,28.175209 
	C126.415054,20.698362 121.236328,14.641845 115.503487,14.410804 
	C108.423393,14.125465 103.399605,16.722486 100.905991,24.738192 
	C100.348145,27.219105 99.654022,29.678883 99.265167,32.186008 
	C98.714874,35.734028 98.389900,39.316994 97.334900,42.665913 
	C96.183334,41.079208 95.166740,39.368214 93.847633,37.935802 
	C92.006126,35.936119 89.938690,34.144505 87.660149,31.635817 
	C85.261993,27.655151 81.249710,28.159725 78.004906,29.204420 
	C75.552452,29.994011 72.495247,32.430950 71.909592,34.702538 
	C70.924500,38.523449 67.081421,42.699795 71.331810,47.623909 
	C71.423660,48.368759 71.515518,49.113613 71.285545,50.670891 
	C71.880310,53.784527 72.475075,56.898163 73.155197,60.762180 
	C73.802338,63.180725 74.449486,65.599274 74.631828,68.240631 
	C74.417168,68.504036 74.202507,68.767441 73.348885,69.257179 
	C69.561554,72.809479 65.774223,76.361778 61.360020,80.206383 
	C55.893162,86.511307 52.723316,93.901009 50.727016,102.694786 
	C46.856522,112.728981 47.549309,123.263847 48.228027,133.566879 
	C48.659813,140.121490 51.311298,146.529877 53.034172,153.772110 
	C55.832489,159.231155 58.158997,165.012375 61.591175,170.038589 
	C63.970623,173.523163 67.873199,175.967667 71.559914,178.995773 
	C71.559914,178.995773 72.026154,179.108353 72.444458,179.633102 
	C74.053482,180.448074 75.706726,181.186859 77.264175,182.090698 
	C85.850029,187.073380 95.163712,189.672485 105.519356,191.202240 
	C106.404297,193.460938 107.289238,195.719620 108.154350,198.733963 
	C109.776680,200.496826 111.096954,203.130600 113.090843,203.822128 
	C116.222427,204.908203 119.228333,203.558670 120.833351,199.236267 
	C120.883202,198.103683 120.718948,196.906082 121.037987,195.855225 
	C121.422462,194.588837 122.217354,193.447067 122.834595,192.251358 
	C123.865074,192.837646 124.895554,193.423920 126.050346,194.845108 
	C126.081360,196.303940 125.530205,198.254715 126.262314,199.121094 
	C127.878990,201.034271 129.929962,203.064346 132.204971,203.791534 
	C134.196854,204.428238 137.745651,205.331879 138.678558,200.577545 
	C138.736420,198.418411 138.794281,196.259293 139.151001,193.492508 
	C140.103134,192.275360 141.055267,191.058228 142.837280,189.951019 
	C148.418213,188.559891 154.085190,187.435303 159.545959,185.672028 
	C162.551010,184.701706 165.209152,182.657043 168.616257,181.237518 
	C184.471466,175.622879 193.977829,157.120712 186.817032,140.330261 
	C186.202454,138.903351 185.587860,137.476440 185.017105,135.107407 
	C184.678513,127.072708 184.339935,119.038002 183.996918,110.125847 
	C182.771561,94.270248 176.859451,80.746140 164.736450,70.044678 
	C161.456573,67.149391 159.007202,63.313267 155.763077,59.202095 
	C155.777634,55.664501 155.917084,52.121758 155.771515,48.590767 
	C155.626907,45.082863 155.195648,41.586781 154.882858,37.310837 
	C154.498550,35.722527 154.371735,34.011055 153.681946,32.568867 
	C151.559769,28.131985 148.157990,25.047121 143.042175,25.022675 
	C139.132706,25.003988 136.077789,26.859892 134.592133,31.197334 
	C134.346390,31.361927 134.147232,31.570906 133.419479,32.071198 
	C133.288437,32.449387 133.157394,32.827576 132.984406,33.444935 
	C132.984406,33.444935 132.974228,33.687542 132.506165,33.853909 
	C132.506165,33.853909 132.040497,34.020679 131.376785,33.934914 
z"/>
<path fill="#131511" opacity="1.000000" stroke="none" 
	d="
M184.001358,111.003304 
	C184.339935,119.038002 184.678513,127.072708 184.659851,135.540573 
	C183.533417,136.799393 182.764221,137.625061 181.626343,138.315186 
	C180.774506,138.320541 180.291351,138.461426 179.496109,138.631226 
	C178.430634,139.012833 177.677261,139.365524 176.553345,139.696274 
	C175.488693,139.913605 174.794540,140.152878 173.723267,140.271896 
	C170.894638,140.103577 168.443161,140.055511 165.821136,139.942123 
	C165.650574,139.876801 165.291000,139.812592 165.186371,139.533951 
	C164.719421,139.172211 164.357101,139.089111 163.675308,138.942139 
	C162.594833,138.519623 161.833832,138.160995 161.011139,137.523117 
	C160.410416,136.777710 159.871384,136.311569 159.286316,135.511780 
	C159.031570,134.790207 158.822845,134.402283 158.649841,133.667114 
	C157.229233,129.678268 154.043427,125.732162 154.621552,122.448792 
	C156.897797,109.521172 165.398605,103.818062 178.205124,107.244705 
	C180.271210,108.693665 182.136292,109.848480 184.001358,111.003304 
M162.208954,124.775642 
	C165.688126,130.223969 169.925720,131.021301 172.301651,126.364067 
	C173.480713,124.052902 173.999451,120.852272 173.448212,118.356331 
	C172.814774,115.488205 171.313812,111.916199 167.164444,112.639458 
	C163.317596,113.309975 161.851471,116.220673 161.920822,119.962837 
	C161.945404,121.289383 162.010651,122.615166 162.208954,124.775642 
M174.030548,130.201401 
	C174.469955,131.828949 174.909348,133.456497 175.348740,135.084045 
	C176.234467,134.832092 177.782181,134.737396 177.886169,134.299713 
	C178.249359,132.771057 178.113724,131.123886 178.167633,129.521744 
	C176.851822,129.500015 175.536026,129.478271 174.030548,130.201401 
z"/>
<path fill="#0C742E" opacity="1.000000" stroke="none" 
	d="
M133.994659,31.824268 
	C134.147232,31.570906 134.346390,31.361927 135.162476,31.096180 
	C137.216766,30.407606 138.841705,30.037853 140.154984,29.187029 
	C142.812027,27.465643 144.645844,28.084135 145.726196,30.858677 
	C144.207245,33.329369 143.032761,35.654713 141.778229,38.186241 
	C141.698212,38.392418 141.656418,38.832767 141.455170,39.145905 
	C140.529663,45.867226 139.632889,52.262558 139.154114,58.689026 
	C138.915619,61.889908 140.118851,64.632660 143.967392,65.378235 
	C144.009644,66.074135 144.039459,66.471107 143.652130,66.912674 
	C141.138657,66.593796 138.996552,66.394203 136.957626,65.825043 
	C134.449799,65.125008 131.868744,64.568146 131.951721,60.840553 
	C132.115509,53.482773 131.919144,46.116978 131.875839,38.531586 
	C131.879959,38.308678 132.043228,37.893742 132.295349,37.632286 
	C132.689713,36.143066 132.831970,34.915306 132.974228,33.687542 
	C132.974228,33.687542 132.984406,33.444935 133.237488,33.149231 
	C133.658600,32.510441 133.826630,32.167355 133.994659,31.824268 
z"/>
<path fill="#DBF0BB" opacity="1.000000" stroke="none" 
	d="
M72.026154,179.108353 
	C72.026154,179.108353 71.559914,178.995773 71.290306,178.585022 
	C70.278908,177.136871 69.326057,176.190384 68.833084,175.045822 
	C67.023613,170.844620 63.074654,167.259018 65.274246,161.966400 
	C68.479340,159.879700 71.211510,157.629242 74.190453,155.775314 
	C75.516846,154.949844 77.361305,154.612076 78.925797,154.717636 
	C79.414581,154.750610 79.784660,156.949844 80.159531,158.172638 
	C80.772377,160.171707 81.291473,162.200745 81.946457,164.185349 
	C82.920029,167.135254 83.977577,170.057465 84.612297,172.994965 
	C83.451149,173.013611 82.677086,173.028748 81.634361,173.006256 
	C81.003960,172.940353 80.642235,172.912064 80.174660,172.499802 
	C79.172424,167.096771 78.276031,162.077713 77.379639,157.058640 
	C76.788956,157.120834 76.198273,157.183014 75.607590,157.245193 
	C76.011490,161.797577 75.985809,166.441483 76.931198,170.878494 
	C78.039795,176.081482 77.342354,177.824661 72.026154,179.108353 
z"/>
<path fill="#08410B" opacity="1.000000" stroke="none" 
	d="
M131.871704,38.754498 
	C131.919144,46.116978 132.115509,53.482773 131.951721,60.840553 
	C131.868744,64.568146 134.449799,65.125008 136.957626,65.825043 
	C138.996552,66.394203 141.138657,66.593796 144.037918,66.933609 
	C146.909332,65.959427 148.977814,65.008911 151.293854,63.948601 
	C151.949020,63.486107 152.356628,63.133400 153.117432,62.859123 
	C153.968887,63.913406 154.467163,64.889259 154.671112,66.059509 
	C152.594727,67.633965 150.812637,69.014030 148.706009,70.354492 
	C147.947800,70.343300 147.514160,70.371704 146.669113,70.274696 
	C143.501251,70.050606 140.744781,69.951927 137.610565,69.915665 
	C134.822739,69.216560 131.175140,67.064430 130.208328,67.924789 
	C124.913437,72.636597 118.361977,70.529846 112.540619,71.806389 
	C109.980637,72.367752 106.811302,70.150299 104.113609,68.933289 
	C104.902397,68.434334 105.496201,68.196632 106.491318,68.030144 
	C112.112068,68.782516 117.488655,70.925354 122.468979,66.376755 
	C123.192184,66.151192 123.601295,66.009476 124.366043,65.885506 
	C126.115280,64.600784 127.508888,63.298313 129.074524,61.641563 
	C129.515106,59.187817 129.783691,57.088345 130.294830,54.750732 
	C130.162842,52.975391 129.788300,51.438187 129.332016,49.476788 
	C127.993500,42.403709 126.736717,35.754826 125.863464,29.076038 
	C126.755821,29.003122 127.264648,28.960112 127.773468,28.917101 
	C128.495544,30.397202 129.217636,31.877300 129.976303,34.047535 
	C130.632492,36.076614 131.252090,37.415554 131.871704,38.754498 
z"/>
<path fill="#406333" opacity="1.000000" stroke="none" 
	d="
M154.965424,65.865120 
	C154.467163,64.889259 153.968887,63.913406 153.126648,62.507881 
	C152.888382,61.383877 152.994080,60.689545 153.484146,59.999607 
	C154.637894,59.972332 155.407272,59.940655 156.176636,59.908981 
	C159.007202,63.313267 161.456573,67.149391 164.736450,70.044678 
	C176.859451,80.746140 182.771561,94.270248 183.999146,110.564575 
	C182.136292,109.848480 180.271210,108.693665 178.321274,106.941200 
	C178.451660,105.558052 178.666916,104.772545 178.923859,103.712097 
	C178.668289,103.241287 178.371017,103.045418 178.079102,102.881287 
	C178.084457,102.913025 178.120682,102.858841 178.094147,102.547554 
	C177.976822,101.831772 177.886017,101.427277 177.880524,100.644119 
	C177.560196,98.544357 177.154556,96.823280 176.792267,94.754097 
	C175.896149,92.603851 174.956696,90.801697 173.982269,88.706841 
	C173.651337,87.928200 173.355408,87.442261 173.025513,86.603653 
	C168.913727,77.748306 162.541489,71.274475 154.965424,65.865120 
z"/>
<path fill="#2F5D16" opacity="1.000000" stroke="none" 
	d="
M142.007416,189.841095 
	C141.055267,191.058228 140.103134,192.275360 138.671356,193.584198 
	C137.123718,192.802780 135.974945,191.117081 135.003387,191.213684 
	C132.413010,191.471252 128.718018,189.398315 127.324936,193.891159 
	C126.672134,193.944000 126.299088,193.977112 125.926033,194.010208 
	C124.895554,193.423920 123.865074,192.837646 122.834595,192.251358 
	C122.217354,193.447067 121.422462,194.588837 121.037987,195.855225 
	C120.718948,196.906082 120.883202,198.103683 120.431953,199.658859 
	C119.392998,200.042313 118.755440,200.003174 118.169228,199.529205 
	C117.092285,196.891708 120.932495,193.123352 115.636139,192.034225 
	C112.966003,191.955414 110.680298,191.955414 108.838081,191.955414 
	C109.021431,194.632370 109.140671,196.373337 108.988052,198.083771 
	C108.535522,198.028259 108.354858,198.003296 108.174187,197.978317 
	C107.289238,195.719620 106.404297,193.460938 105.251495,190.569199 
	C104.981850,189.197433 104.980064,188.458710 105.432350,187.678040 
	C112.869621,187.694016 119.855240,187.886536 126.835114,187.760574 
	C131.189102,187.681992 135.534424,187.122589 140.226242,186.797150 
	C141.023071,186.773499 141.477295,186.731644 141.946167,187.084351 
	C141.976349,188.266296 141.991882,189.053696 142.007416,189.841095 
z"/>
<path fill="#3D602E" opacity="1.000000" stroke="none" 
	d="
M186.704758,141.007050 
	C193.977829,157.120712 184.471466,175.622879 168.271057,180.789368 
	C167.891418,180.089890 167.856979,179.838562 167.873901,179.263702 
	C169.355881,177.845703 170.949112,176.907944 172.184845,175.625641 
	C175.201477,172.495285 178.052658,169.205444 181.211243,165.793930 
	C181.915237,164.742203 182.378418,163.876343 183.121643,162.807449 
	C183.569229,161.716629 183.736755,160.828827 184.093262,159.689514 
	C184.460236,158.619797 184.638229,157.801605 185.095062,156.823273 
	C185.442032,156.058578 185.510147,155.454041 185.656342,154.461060 
	C185.697311,152.757889 185.660172,151.443176 185.706421,149.789459 
	C185.486847,148.640381 185.183914,147.830322 184.835175,146.646790 
	C184.424438,144.563278 184.059479,142.853210 184.071152,141.109619 
	C185.200104,141.053070 185.952438,141.030060 186.704758,141.007050 
z"/>
<path fill="#116C34" opacity="1.000000" stroke="none" 
	d="
M75.096634,68.017815 
	C74.449486,65.599274 73.802338,63.180725 73.436890,60.309204 
	C73.014847,56.523640 72.311104,53.191051 71.607368,49.858463 
	C71.515518,49.113613 71.423660,48.368759 71.542397,46.960552 
	C72.624786,43.286156 73.307343,40.203396 74.414719,37.281643 
	C75.908081,33.341515 78.831314,31.804596 82.803543,33.296616 
	C81.801384,34.009548 80.999222,34.511665 79.815292,35.054466 
	C75.610008,35.873131 74.868263,38.993587 75.111519,41.957909 
	C75.610260,48.035469 76.790115,54.053619 77.507034,60.117805 
	C78.192039,65.912048 81.750877,69.695419 85.772919,73.297379 
	C80.307999,74.969551 78.672668,69.661446 75.096634,68.017815 
z"/>
<path fill="#164F18" opacity="1.000000" stroke="none" 
	d="
M74.864227,68.129227 
	C78.672668,69.661446 80.307999,74.969551 86.101715,73.247055 
	C87.796303,72.293617 88.903427,71.628082 90.312447,71.055420 
	C92.445564,70.124382 94.276779,69.100456 96.355698,67.899109 
	C96.744339,67.145615 96.885277,66.569534 97.338791,65.981277 
	C98.397308,65.639053 99.143257,65.309013 100.125488,65.180672 
	C101.019913,66.651711 101.678047,67.921051 102.222061,69.519104 
	C95.615677,76.011505 88.150749,79.158348 78.951538,76.994301 
	C77.220474,75.109985 75.602615,73.508659 73.990005,71.547562 
	C73.992783,70.468811 73.990311,69.749825 73.987839,69.030846 
	C74.202507,68.767441 74.417168,68.504036 74.864227,68.129227 
z"/>
<path fill="#35591E" opacity="1.000000" stroke="none" 
	d="
M104.978271,187.719986 
	C104.980064,188.458710 104.981850,189.197433 104.981323,190.300644 
	C95.163712,189.672485 85.850029,187.073380 77.264175,182.090698 
	C75.706726,181.186859 74.053482,180.448074 72.235306,179.370728 
	C77.342354,177.824661 78.039795,176.081482 76.931198,170.878494 
	C75.985809,166.441483 76.011490,161.797577 75.607590,157.245193 
	C76.198273,157.183014 76.788956,157.120834 77.379639,157.058640 
	C78.276031,162.077713 79.172424,167.096771 80.063011,172.864014 
	C79.462425,175.597427 78.867638,177.582657 78.187614,179.852448 
	C86.807755,184.199432 95.734528,186.477142 104.978271,187.719986 
z"/>
<path fill="#2E5615" opacity="1.000000" stroke="none" 
	d="
M52.967445,153.003830 
	C51.311298,146.529877 48.659813,140.121490 48.228027,133.566879 
	C47.549309,123.263847 46.856522,112.728981 51.191067,102.352371 
	C52.048790,102.010010 52.442463,102.010063 52.888481,102.405548 
	C52.681335,104.885315 52.421844,106.969627 51.797512,109.253166 
	C51.194626,115.003197 50.956581,120.554016 50.792099,126.424622 
	C50.966717,127.169754 51.067764,127.595085 51.096611,128.411896 
	C51.088406,129.856766 51.152401,130.910126 51.187317,132.300903 
	C51.244175,133.079300 51.330112,133.520309 51.336052,134.384918 
	C51.918915,138.550735 52.581772,142.292984 53.205109,146.284302 
	C53.435577,146.708832 53.705563,146.884293 54.042950,147.285736 
	C54.110352,147.511688 54.311169,147.938400 54.243752,148.320145 
	C54.544239,150.450562 54.912151,152.199234 54.980766,153.857956 
	C54.110130,153.513290 53.538788,153.258560 52.967445,153.003830 
z"/>
<path fill="#1F4928" opacity="1.000000" stroke="none" 
	d="
M127.798767,28.546154 
	C127.264648,28.960112 126.755821,29.003122 125.625565,28.877020 
	C123.679405,27.071730 122.354683,25.435553 121.039246,23.484612 
	C120.387978,22.367283 119.727425,21.564716 118.949753,20.422045 
	C113.466705,16.321558 109.249763,17.461065 103.683151,24.058075 
	C102.556137,24.034254 101.804878,24.026476 101.053612,24.018698 
	C103.399605,16.722486 108.423393,14.125465 115.503487,14.410804 
	C121.236328,14.641845 126.415054,20.698362 127.798767,28.546154 
z"/>
<path fill="#3C5E2F" opacity="1.000000" stroke="none" 
	d="
M53.000809,153.387970 
	C53.538788,153.258560 54.110130,153.513290 55.251999,154.049408 
	C57.505444,157.132889 59.188358,159.934967 60.533749,162.175064 
	C62.090687,161.455063 63.397778,160.850616 64.776581,160.530029 
	C64.866119,161.197281 64.883949,161.580688 64.901787,161.964081 
	C63.074654,167.259018 67.023613,170.844620 68.833084,175.045822 
	C69.326057,176.190384 70.278908,177.136871 71.057968,178.525574 
	C67.873199,175.967667 63.970623,173.523163 61.591175,170.038589 
	C58.158997,165.012375 55.832489,159.231155 53.000809,153.387970 
z"/>
<path fill="#16431E" opacity="1.000000" stroke="none" 
	d="
M146.070648,30.713331 
	C144.645844,28.084135 142.812027,27.465643 140.154984,29.187029 
	C138.841705,30.037853 137.216766,30.407606 135.355026,30.994188 
	C136.077789,26.859892 139.132706,25.003988 143.042175,25.022675 
	C148.157990,25.047121 151.559769,28.131985 153.681946,32.568867 
	C154.371735,34.011055 154.498550,35.722527 154.634857,37.934494 
	C154.386856,40.681080 154.386856,42.804005 154.386856,45.109425 
	C153.822540,44.597069 153.472656,44.279408 153.047150,43.576370 
	C152.024734,40.283016 151.077972,37.375038 150.123352,34.133095 
	C148.767227,32.770531 147.418945,31.741930 146.070648,30.713331 
z"/>
<path fill="#A6D27A" opacity="1.000000" stroke="none" 
	d="
M127.604691,193.871429 
	C128.718018,189.398315 132.413010,191.471252 135.003387,191.213684 
	C135.974945,191.117081 137.123718,192.802780 138.521912,193.888031 
	C138.794281,196.259293 138.736420,198.418411 137.916550,200.709442 
	C131.175537,202.348602 128.692734,199.065521 127.604691,193.871429 
z"/>
<path fill="#114423" opacity="1.000000" stroke="none" 
	d="
M83.003548,33.085800 
	C78.831314,31.804596 75.908081,33.341515 74.414719,37.281643 
	C73.307343,40.203396 72.624786,43.286156 71.565521,46.583885 
	C67.081421,42.699795 70.924500,38.523449 71.909592,34.702538 
	C72.495247,32.430950 75.552452,29.994011 78.004906,29.204420 
	C81.249710,28.159725 85.261993,27.655151 87.772812,32.229000 
	C87.282188,33.210003 86.678909,33.597824 85.772499,33.868896 
	C84.647430,33.530029 83.825493,33.307915 83.003548,33.085800 
z"/>
<path fill="#375C26" opacity="1.000000" stroke="none" 
	d="
M167.822525,179.587219 
	C167.856979,179.838562 167.891418,180.089890 167.974777,180.718964 
	C165.209152,182.657043 162.551010,184.701706 159.545959,185.672028 
	C154.085190,187.435303 148.418213,188.559891 142.422348,189.896057 
	C141.991882,189.053696 141.976349,188.266296 142.234344,186.824615 
	C145.076782,185.738251 147.704712,185.520218 150.202774,184.831253 
	C156.108856,183.202316 161.953217,181.349503 167.822525,179.587219 
z"/>
<path fill="#2E5528" opacity="1.000000" stroke="none" 
	d="
M86.075623,33.985645 
	C86.678909,33.597824 87.282188,33.210003 87.926697,32.543018 
	C89.938690,34.144505 92.006126,35.936119 93.847633,37.935802 
	C95.166740,39.368214 96.183334,41.079208 97.663765,43.173103 
	C98.327751,45.456909 98.662872,47.233521 98.823822,49.346687 
	C98.335068,50.900364 98.020477,52.117477 97.390930,53.169350 
	C94.422348,48.229488 91.768723,43.454868 88.947586,38.430283 
	C88.460403,37.453590 88.140732,36.726868 87.721542,35.745911 
	C87.106552,34.989666 86.591087,34.487656 86.075623,33.985645 
z"/>
<path fill="#1A562C" opacity="1.000000" stroke="none" 
	d="
M98.997993,49.010132 
	C98.662872,47.233521 98.327751,45.456909 97.980621,43.282661 
	C98.389900,39.316994 98.714874,35.734028 99.265167,32.186008 
	C99.654022,29.678883 100.348145,27.219105 100.979797,24.378445 
	C101.804878,24.026476 102.556137,24.034254 103.663094,24.451807 
	C103.356033,28.238779 102.693283,31.615978 102.018692,35.436420 
	C101.672401,40.564129 101.337959,45.248600 100.749329,49.824608 
	C99.996094,49.480804 99.497047,49.245468 98.997993,49.010132 
z"/>
<path fill="#35591E" opacity="1.000000" stroke="none" 
	d="
M52.836136,102.010109 
	C52.442463,102.010063 52.048790,102.010010 51.360371,102.007401 
	C52.723316,93.901009 55.893162,86.511307 61.728577,80.389908 
	C62.487083,81.084763 62.877033,81.596092 63.196083,82.453064 
	C59.695496,89.202507 56.265820,95.606308 52.836136,102.010109 
z"/>
<path fill="#52733B" opacity="1.000000" stroke="none" 
	d="
M127.324936,193.891159 
	C128.692734,199.065521 131.175537,202.348602 137.578766,200.923492 
	C137.745651,205.331879 134.196854,204.428238 132.204971,203.791534 
	C129.929962,203.064346 127.878990,201.034271 126.262314,199.121094 
	C125.530205,198.254715 126.081360,196.303940 125.988190,194.427658 
	C126.299088,193.977112 126.672134,193.944000 127.324936,193.891159 
z"/>
<path fill="#3C5E2F" opacity="1.000000" stroke="none" 
	d="
M153.122772,43.961742 
	C153.472656,44.279408 153.822540,44.597069 154.386856,45.109425 
	C154.386856,42.804005 154.386856,40.681080 154.638474,38.321835 
	C155.195648,41.586781 155.626907,45.082863 155.771515,48.590767 
	C155.917084,52.121758 155.777634,55.664501 155.969849,59.555538 
	C155.407272,59.940655 154.637894,59.972332 153.462708,59.533413 
	C153.078842,54.029129 153.100800,48.995434 153.122772,43.961742 
z"/>
<path fill="#2E5615" opacity="1.000000" stroke="none" 
	d="
M63.266987,82.107430 
	C62.877033,81.596092 62.487083,81.084763 62.042011,80.243752 
	C65.774223,76.361778 69.561554,72.809479 73.668365,69.144012 
	C73.990311,69.749825 73.992783,70.468811 73.714569,71.737991 
	C70.044914,75.561279 66.655952,78.834351 63.266987,82.107430 
z"/>
<path fill="#52733B" opacity="1.000000" stroke="none" 
	d="
M108.164268,198.356140 
	C108.354858,198.003296 108.535522,198.028259 109.103500,198.383362 
	C110.998550,199.427109 112.506294,200.140701 114.368134,200.933014 
	C115.854111,200.662506 116.986000,200.313278 118.117882,199.964050 
	C118.755440,200.003174 119.392998,200.042313 120.347305,200.084488 
	C119.228333,203.558670 116.222427,204.908203 113.090843,203.822128 
	C111.096954,203.130600 109.776680,200.496826 108.164268,198.356140 
z"/>
<path fill="#114423" opacity="1.000000" stroke="none" 
	d="
M71.446457,50.264679 
	C72.311104,53.191051 73.014847,56.523640 73.394211,59.934013 
	C72.475075,56.898163 71.880310,53.784527 71.446457,50.264679 
z"/>
<path fill="#3C5E2F" opacity="1.000000" stroke="none" 
	d="
M186.760895,140.668655 
	C185.952438,141.030060 185.200104,141.053070 183.881317,141.080322 
	C183.314835,141.084564 182.938095,141.009689 182.902954,140.663879 
	C182.576904,139.695602 182.285965,139.073166 181.995026,138.450714 
	C182.764221,137.625061 183.533417,136.799393 184.637939,136.011627 
	C185.587860,137.476440 186.202454,138.903351 186.760895,140.668655 
z"/>
<path fill="#B8C0A2" opacity="1.000000" stroke="none" 
	d="
M131.875824,38.531586 
	C131.252090,37.415554 130.632492,36.076614 130.029297,34.398239 
	C130.489410,34.017509 130.933090,33.976212 131.778473,34.362385 
	C132.134506,35.824486 132.088867,36.859112 132.043228,37.893742 
	C132.043228,37.893742 131.879959,38.308678 131.875824,38.531586 
z"/>
<path fill="#406333" opacity="1.000000" stroke="none" 
	d="
M132.295349,37.632286 
	C132.088867,36.859112 132.134506,35.824486 132.110321,34.405266 
	C132.040497,34.020679 132.506165,33.853909 132.740204,33.770725 
	C132.831970,34.915306 132.689713,36.143066 132.295349,37.632286 
z"/>
<path fill="#406333" opacity="1.000000" stroke="none" 
	d="
M133.707062,31.947735 
	C133.826630,32.167355 133.658600,32.510441 133.258453,33.029644 
	C133.157394,32.827576 133.288437,32.449387 133.707062,31.947735 
z"/>
<path fill="#E4F4BD" opacity="1.000000" stroke="none" 
	d="
M181.626343,138.315186 
	C182.285965,139.073166 182.576904,139.695602 182.542572,140.677811 
	C181.480881,143.034256 180.744446,145.030945 179.675323,147.020065 
	C178.899323,147.011581 178.456024,147.010681 177.640533,146.947693 
	C176.397354,146.414841 175.441284,145.434036 174.670364,145.562698 
	C171.557755,146.082153 168.092911,146.309845 165.586609,147.928299 
	C164.191986,148.828888 163.857101,152.306381 164.049316,154.535904 
	C164.464386,159.350327 166.680298,163.397186 170.933685,166.336731 
	C163.918060,173.283661 156.000732,177.479568 146.063797,177.061081 
	C143.800049,176.965744 141.417557,177.305191 139.239716,177.950607 
	C127.154678,181.532120 114.932732,180.772293 102.837242,178.648865 
	C96.747902,177.579834 90.936485,174.927704 84.999390,172.991455 
	C83.977577,170.057465 82.920029,167.135254 81.946457,164.185349 
	C81.291473,162.200745 80.772377,160.171707 80.159531,158.172638 
	C79.784660,156.949844 79.414581,154.750610 78.925797,154.717636 
	C77.361305,154.612076 75.516846,154.949844 74.190453,155.775314 
	C71.211510,157.629242 68.479340,159.879700 65.274246,161.966400 
	C64.883949,161.580688 64.866119,161.197281 64.887970,160.164886 
	C65.005424,159.012955 65.083199,158.510025 65.464859,158.004639 
	C66.174934,158.002884 66.581123,158.003586 67.251534,157.790680 
	C68.827827,156.377548 70.139900,155.178009 71.503601,153.931274 
	C71.073280,150.158630 70.493507,146.465698 65.784035,145.177933 
	C64.948380,144.949432 64.090652,143.131073 64.030319,142.004715 
	C63.587193,133.731583 63.321358,125.448395 63.076641,117.166100 
	C63.053982,116.399200 63.560970,115.614449 63.831852,114.841431 
	C66.215096,108.040169 68.542709,101.218460 71.025574,94.453743 
	C71.655991,92.736130 72.785431,91.202255 73.680229,89.580994 
	C75.451309,86.371979 77.218658,83.160904 79.169662,79.805954 
	C79.585701,79.456810 79.805298,79.238029 80.313614,79.170700 
	C82.718773,81.826744 85.109016,82.118500 88.131302,80.877525 
	C91.326973,79.565369 94.776535,78.884895 98.033623,77.703590 
	C99.799217,77.063210 101.368256,75.242233 103.071777,75.178490 
	C110.988190,74.882278 118.954788,75.441101 126.832741,74.810646 
	C130.700439,74.501137 134.414398,72.270370 138.462143,71.058685 
	C139.475754,71.506264 140.225143,71.804237 141.096191,72.449966 
	C144.271683,74.606583 147.113373,75.357689 149.199890,71.242966 
	C149.729675,71.262077 149.996063,71.377022 150.227814,71.784058 
	C150.479614,71.909042 150.723846,71.839676 151.371826,71.751770 
	C153.567123,72.065628 155.358673,72.398010 157.153412,73.075958 
	C157.806564,73.904518 158.456528,74.387505 159.094147,74.919159 
	C159.081802,74.967834 159.142639,74.887901 159.098495,75.307663 
	C158.713699,78.560478 159.510132,80.385239 162.091446,82.333351 
	C164.956909,84.495888 167.633926,87.826912 168.734924,91.191719 
	C170.357925,96.151810 173.793655,98.663231 177.795212,101.022789 
	C177.886017,101.427277 177.976822,101.831772 177.684723,102.584915 
	C175.855087,102.717865 173.948135,103.010963 173.045120,102.194160 
	C169.933792,99.379860 167.035004,100.575920 163.988403,101.633301 
	C163.207672,99.521416 162.438522,97.781258 161.669357,96.041107 
	C160.998901,96.167198 160.328445,96.293282 159.657990,96.419373 
	C159.444168,99.275757 159.230362,102.132133 158.764832,105.255333 
	C157.872101,107.357307 157.284882,109.213463 156.578644,111.023178 
	C155.161560,114.654488 153.186996,118.147896 152.329391,121.900894 
	C150.676422,129.134384 152.530838,132.229843 158.614120,134.014359 
	C158.822845,134.402283 159.031570,134.790207 159.011948,135.715179 
	C158.971512,137.299866 159.159439,138.347504 159.347366,139.395157 
	C159.922531,138.864243 160.497681,138.333313 161.072830,137.802383 
	C161.833832,138.160995 162.594833,138.519623 163.868958,139.113861 
	C164.685059,139.503860 164.988022,139.658234 165.291000,139.812592 
	C165.291000,139.812592 165.650574,139.876801 166.068726,140.174103 
	C169.044785,142.374039 171.606415,144.631805 174.100403,140.392151 
	C174.794540,140.152878 175.488693,139.913605 176.744690,139.913574 
	C178.140427,139.635956 178.974319,139.119125 179.808197,138.602295 
	C180.291351,138.461426 180.774506,138.320541 181.626343,138.315186 
M145.708740,160.530685 
	C148.145264,159.693207 150.581787,158.855728 153.433273,157.782898 
	C153.716705,157.617996 153.932037,157.389053 154.464554,156.496445 
	C156.613342,154.400192 157.044113,152.439880 153.898010,150.108154 
	C150.033356,145.384689 149.020233,150.948807 146.778793,152.081467 
	C141.601517,147.761459 131.329666,150.183228 125.382996,153.896652 
	C124.393967,153.280060 123.404938,152.663483 122.415901,152.046906 
	C122.397507,153.076996 122.514702,154.132019 122.330788,155.131653 
	C122.007774,156.887390 121.539803,158.620285 121.054710,160.340805 
	C120.788460,161.285172 120.363174,162.184692 120.009598,163.104431 
	C120.355927,163.383804 120.702248,163.663162 121.048569,163.942535 
	C122.352798,162.939362 123.657021,161.936203 125.901054,160.832108 
	C132.230026,160.760651 138.558990,160.689194 145.708740,160.530685 
M93.480164,145.406616 
	C92.374191,146.390991 91.258720,147.364929 90.163979,148.361633 
	C86.485352,151.710861 83.703346,159.502274 86.497086,162.695999 
	C88.956940,165.508057 93.587959,166.744308 97.491829,167.880493 
	C101.547607,169.060867 103.308220,166.235184 104.316788,162.605438 
	C105.725693,157.534882 105.282799,153.198135 100.768997,149.796860 
	C99.945251,149.176147 99.573120,147.956116 99.730804,147.109802 
	C103.352730,149.034317 106.749252,149.539505 110.308327,146.602905 
	C111.889549,145.298233 114.333885,145.099838 116.224792,144.095062 
	C118.597443,142.834320 121.062286,141.548172 123.036591,139.771957 
	C130.545059,133.016846 130.693954,124.713776 126.447006,116.455986 
	C124.105736,111.903618 120.454163,107.861137 116.721458,104.291275 
	C115.643196,103.260056 112.237167,104.694252 109.891891,104.935974 
	C109.244331,105.002716 108.469650,105.043854 107.929443,104.760689 
	C101.363182,101.318825 95.957787,104.326126 90.521469,107.685364 
	C86.658852,110.072189 84.333908,117.753983 86.205795,122.984093 
	C86.263710,125.273438 86.321625,127.562782 85.793518,130.288773 
	C85.703819,131.200195 85.365219,132.170670 85.565186,133.013351 
	C86.774414,138.109161 89.577995,142.133835 93.480164,145.406616 
M78.459541,152.492111 
	C78.459541,152.492111 78.517471,152.465500 78.459541,152.492111 
z"/>
<path fill="#E9E9E8" opacity="1.000000" stroke="none" 
	d="
M162.133148,124.358475 
	C162.010651,122.615166 161.945404,121.289383 161.920822,119.962837 
	C161.851471,116.220673 163.317596,113.309975 167.164444,112.639458 
	C171.313812,111.916199 172.814774,115.488205 173.448212,118.356331 
	C173.999451,120.852272 173.480713,124.052902 172.301651,126.364067 
	C169.925720,131.021301 165.688126,130.223969 162.133148,124.358475 
z"/>
<path fill="#E2ECC6" opacity="1.000000" stroke="none" 
	d="
M158.649841,133.667114 
	C152.530838,132.229843 150.676422,129.134384 152.329391,121.900894 
	C153.186996,118.147896 155.161560,114.654488 156.578644,111.023178 
	C157.284882,109.213463 157.872101,107.357307 159.060806,105.286697 
	C161.072296,104.035843 162.536118,103.020439 163.999954,102.005035 
	C167.035004,100.575920 169.933792,99.379860 173.045120,102.194160 
	C173.948135,103.010963 175.855087,102.717865 177.711258,102.896194 
	C178.120682,102.858841 178.084457,102.913025 178.157684,103.107460 
	C178.383102,103.591949 178.600189,103.820328 178.882172,103.987030 
	C178.666916,104.772545 178.451660,105.558052 178.120255,106.647064 
	C165.398605,103.818062 156.897797,109.521172 154.621552,122.448792 
	C154.043427,125.732162 157.229233,129.678268 158.649841,133.667114 
z"/>
<path fill="#D1D1CF" opacity="1.000000" stroke="none" 
	d="
M174.125381,129.828979 
	C175.536026,129.478271 176.851822,129.500015 178.167633,129.521744 
	C178.113724,131.123886 178.249359,132.771057 177.886169,134.299713 
	C177.782181,134.737396 176.234467,134.832092 175.348740,135.084045 
	C174.909348,133.456497 174.469955,131.828949 174.125381,129.828979 
z"/>
<path fill="#B8C0A2" opacity="1.000000" stroke="none" 
	d="
M173.723267,140.271896 
	C171.606415,144.631805 169.044785,142.374039 166.239273,140.239426 
	C168.443161,140.055511 170.894638,140.103577 173.723267,140.271896 
z"/>
<path fill="#E2ECC6" opacity="1.000000" stroke="none" 
	d="
M161.011139,137.523117 
	C160.497681,138.333313 159.922531,138.864243 159.347366,139.395157 
	C159.159439,138.347504 158.971512,137.299866 159.057953,136.048813 
	C159.871384,136.311569 160.410416,136.777710 161.011139,137.523117 
z"/>
<path fill="#B8C0A2" opacity="1.000000" stroke="none" 
	d="
M179.496109,138.631226 
	C178.974319,139.119125 178.140427,139.635956 177.115204,139.935486 
	C177.677261,139.365524 178.430634,139.012833 179.496109,138.631226 
z"/>
<path fill="#B8C0A2" opacity="1.000000" stroke="none" 
	d="
M165.186371,139.533951 
	C164.988022,139.658234 164.685059,139.503860 164.188431,139.177765 
	C164.357101,139.089111 164.719421,139.172211 165.186371,139.533951 
z"/>
<path fill="#4AAE4E" opacity="1.000000" stroke="none" 
	d="
M151.046310,64.058388 
	C148.977814,65.008911 146.909332,65.959427 144.455048,66.889008 
	C144.039459,66.471107 144.009644,66.074135 143.981857,64.959854 
	C143.719406,62.638458 143.769012,60.894939 143.130630,59.456848 
	C141.328995,55.398468 140.609482,51.658638 142.480225,47.172462 
	C143.427048,44.901894 142.006592,41.644173 141.656418,38.832767 
	C141.656418,38.832767 141.698212,38.392418 142.147797,38.146774 
	C144.402191,37.267403 146.207031,36.633675 148.062592,36.322983 
	C148.124191,37.081234 148.135071,37.516449 147.822876,38.127563 
	C147.065552,38.962074 146.117218,39.809780 146.278854,40.249172 
	C147.496078,43.558121 146.003967,45.952927 144.478745,48.804642 
	C142.137695,53.181686 144.271500,57.716587 148.956177,60.332382 
	C149.705704,61.793083 150.376007,62.925735 151.046310,64.058388 
z"/>
<path fill="#42A952" opacity="1.000000" stroke="none" 
	d="
M141.455170,39.145905 
	C142.006592,41.644173 143.427048,44.901894 142.480225,47.172462 
	C140.609482,51.658638 141.328995,55.398468 143.130630,59.456848 
	C143.769012,60.894939 143.719406,62.638458 143.969421,64.660919 
	C140.118851,64.632660 138.915619,61.889908 139.154114,58.689026 
	C139.632889,52.262558 140.529663,45.867226 141.455170,39.145905 
z"/>
<path fill="#42A952" opacity="1.000000" stroke="none" 
	d="
M148.011856,35.999947 
	C146.207031,36.633675 144.402191,37.267403 142.227814,37.940594 
	C143.032761,35.654713 144.207245,33.329369 145.726196,30.858675 
	C147.418945,31.741930 148.767227,32.770531 149.835266,34.294228 
	C149.040619,35.192867 148.526230,35.596405 148.011856,35.999947 
z"/>
<path fill="#DEF6B0" opacity="1.000000" stroke="none" 
	d="
M84.612297,172.994965 
	C90.936485,174.927704 96.747902,177.579834 102.837242,178.648865 
	C114.932732,180.772293 127.154678,181.532120 139.239716,177.950607 
	C141.417557,177.305191 143.800049,176.965744 146.063797,177.061081 
	C156.000732,177.479568 163.918060,173.283661 171.302826,166.326553 
	C174.884735,164.662415 178.027496,163.342896 181.331360,162.224243 
	C181.942154,162.620224 182.391876,162.815338 182.841583,163.010468 
	C182.378418,163.876343 181.915237,164.742203 180.865662,165.818359 
	C178.221664,167.679581 176.253113,169.458679 174.091537,170.959854 
	C162.941437,178.703354 150.191681,181.695740 136.653442,183.252716 
	C135.882996,183.259705 135.442947,183.292023 134.648605,183.248520 
	C133.218246,183.490906 132.142197,183.809113 130.645660,184.098419 
	C128.823517,184.118713 127.421890,184.167892 125.641953,184.157379 
	C124.501831,184.143265 123.739998,184.188828 122.534782,184.186493 
	C119.706741,184.133575 117.322098,184.128586 114.703644,183.859238 
	C113.311584,183.482834 112.153336,183.370773 110.572662,183.201187 
	C100.039742,181.720215 90.321465,179.199768 81.903030,173.043884 
	C82.677086,173.028748 83.451149,173.013611 84.612297,172.994965 
z"/>
<path fill="#ADD67D" opacity="1.000000" stroke="none" 
	d="
M135.002914,183.324341 
	C135.442947,183.292023 135.882996,183.259705 136.709518,183.536987 
	C138.025208,184.824051 138.954407,185.801514 139.883621,186.778961 
	C135.534424,187.122589 131.189102,187.681992 126.835114,187.760574 
	C119.855240,187.886536 112.869621,187.694016 105.432350,187.678040 
	C95.734528,186.477142 86.807755,184.199432 78.187614,179.852448 
	C78.867638,177.582657 79.462425,175.597427 80.168854,173.247986 
	C80.642235,172.912064 81.003960,172.940353 81.634361,173.006271 
	C90.321465,179.199768 100.039742,181.720215 110.664612,183.495819 
	C112.431801,183.939835 113.684624,184.031723 114.937447,184.123596 
	C117.322098,184.128586 119.706741,184.133575 122.557770,184.515350 
	C123.625481,185.485397 124.226822,186.078674 124.828156,186.671967 
	C125.225525,185.853668 125.622887,185.035370 126.020248,184.217072 
	C127.421890,184.167892 128.823517,184.118713 130.878174,184.311646 
	C132.688431,184.143951 133.845673,183.734146 135.002914,183.324341 
z"/>
<path fill="#D4ECBE" opacity="1.000000" stroke="none" 
	d="
M138.197922,70.909073 
	C134.414398,72.270370 130.700439,74.501137 126.832741,74.810646 
	C118.954788,75.441101 110.988190,74.882278 103.071777,75.178490 
	C101.368256,75.242233 99.799217,77.063210 98.033623,77.703590 
	C94.776535,78.884895 91.326973,79.565369 88.131302,80.877525 
	C85.109016,82.118500 82.718773,81.826744 80.086143,78.927460 
	C79.392006,78.104698 79.228378,77.691002 79.064743,77.277298 
	C88.150749,79.158348 95.615677,76.011505 102.486954,69.522629 
	C103.216858,69.196472 103.567749,69.195503 103.918633,69.194534 
	C106.811302,70.150299 109.980637,72.367752 112.540619,71.806389 
	C118.361977,70.529846 124.913437,72.636597 130.208328,67.924789 
	C131.175140,67.064430 134.822739,69.216560 137.648666,70.182510 
	C138.108978,70.560982 138.153442,70.735023 138.197922,70.909073 
z"/>
<path fill="#4AAE4E" opacity="1.000000" stroke="none" 
	d="
M124.010414,65.867752 
	C123.601295,66.009476 123.192184,66.151192 122.189240,66.230331 
	C121.395714,66.104347 121.196007,66.040947 120.919945,65.642868 
	C119.014572,63.116104 117.240959,60.874172 115.332733,58.753365 
	C114.404198,57.721394 113.224113,56.915749 112.116402,55.672554 
	C112.057121,54.887699 112.039337,54.437943 112.277260,53.768589 
	C114.004547,51.263676 115.089333,49.067478 111.205627,47.670769 
	C111.163620,46.887459 111.171394,46.438046 111.535225,45.858532 
	C113.313347,41.720421 114.523178,37.725246 111.151703,33.629665 
	C111.184761,32.505154 111.248177,31.756363 111.614502,30.943466 
	C113.614189,29.588856 115.310951,28.298351 117.006989,27.472158 
	C117.336433,32.623684 117.666618,37.310898 117.997269,42.433609 
	C118.671326,46.390823 119.148468,49.964851 120.068810,53.420860 
	C121.187523,57.621792 122.679771,61.723255 124.010414,65.867752 
z"/>
<path fill="#9AD982" opacity="1.000000" stroke="none" 
	d="
M121.029961,23.799377 
	C122.354683,25.435553 123.679405,27.071730 125.242027,28.906925 
	C126.736717,35.754826 127.993500,42.403709 129.247467,49.853531 
	C129.513870,52.099270 129.783066,53.544071 130.052277,54.988873 
	C129.783691,57.088345 129.515106,59.187817 128.695374,61.612106 
	C127.106773,59.935387 125.550758,58.037006 125.128304,55.913151 
	C123.816895,49.320026 122.936005,42.641266 121.906715,35.607948 
	C121.322876,32.479282 120.720383,29.738407 120.143890,26.677616 
	C120.179756,25.930332 120.189621,25.502962 120.398598,24.905952 
	C120.741791,24.424002 120.885872,24.111691 121.029961,23.799377 
z"/>
<path fill="#56AD46" opacity="1.000000" stroke="none" 
	d="
M121.888054,35.995735 
	C122.936005,42.641266 123.816895,49.320026 125.128304,55.913151 
	C125.550758,58.037006 127.106773,59.935387 128.523346,61.966377 
	C127.508888,63.298313 126.115280,64.600784 124.366043,65.885506 
	C122.679771,61.723255 121.187523,57.621792 120.068810,53.420860 
	C119.148468,49.964851 118.671326,46.390823 118.245468,42.174957 
	C119.624802,39.652454 120.756432,37.824097 121.888054,35.995735 
z"/>
<path fill="#95D785" opacity="1.000000" stroke="none" 
	d="
M148.062592,36.322979 
	C148.526230,35.596405 149.040619,35.192867 149.843109,34.628193 
	C151.077972,37.375038 152.024734,40.283016 153.047134,43.576370 
	C153.100800,48.995434 153.078842,54.029129 153.078308,59.529015 
	C152.994080,60.689545 152.888382,61.383877 152.773468,62.429451 
	C152.356628,63.133400 151.949020,63.486107 151.293854,63.948601 
	C150.376007,62.925735 149.705704,61.793083 149.015930,59.866573 
	C148.712952,52.032368 148.429443,44.992016 148.145935,37.951668 
	C148.135071,37.516449 148.124191,37.081234 148.062592,36.322979 
z"/>
<path fill="#A5CC8A" opacity="1.000000" stroke="none" 
	d="
M157.150238,72.730392 
	C155.358673,72.398010 153.567123,72.065628 151.183777,71.712158 
	C150.592010,71.691071 150.220261,71.589714 150.220261,71.589714 
	C149.996063,71.377022 149.729675,71.262077 149.163254,71.027878 
	C148.905380,70.810875 149.030563,70.394104 149.030563,70.394104 
	C150.812637,69.014030 152.594727,67.633965 154.671112,66.059509 
	C162.541489,71.274475 168.913727,77.748306 172.673050,86.602493 
	C170.857803,85.474014 169.413971,83.935379 167.852798,82.526779 
	C164.985901,79.940063 162.049850,77.429947 159.142639,74.887901 
	C159.142639,74.887901 159.081802,74.967834 159.041565,74.613335 
	C158.384308,73.749359 157.767273,73.239876 157.150238,72.730392 
z"/>
<path fill="#03470A" opacity="1.000000" stroke="none" 
	d="
M104.113609,68.933289 
	C103.567749,69.195503 103.216858,69.196472 102.601074,69.193924 
	C101.678047,67.921051 101.019913,66.651711 100.150337,64.759735 
	C99.194557,60.536266 98.450226,56.935429 97.705887,53.334595 
	C98.020477,52.117477 98.335068,50.900364 98.823822,49.346687 
	C99.497047,49.245468 99.996094,49.480804 100.766876,50.238377 
	C101.396690,53.507385 101.754776,56.254166 102.093658,59.399666 
	C103.412979,62.518570 104.751495,65.238747 106.090012,67.958923 
	C105.496201,68.196632 104.902397,68.434334 104.113609,68.933289 
z"/>
<path fill="#116C34" opacity="1.000000" stroke="none" 
	d="
M106.491318,68.030144 
	C104.751495,65.238747 103.412979,62.518570 102.432404,59.501709 
	C105.137032,61.001606 102.975327,66.255791 108.289398,66.254700 
	C110.765648,66.236183 112.952812,65.961266 115.551346,65.747856 
	C117.640579,65.865425 119.318443,65.921486 120.996300,65.977554 
	C121.196007,66.040947 121.395714,66.104347 121.875160,66.314178 
	C117.488655,70.925354 112.112068,68.782516 106.491318,68.030144 
z"/>
<path fill="#A5CC8A" opacity="1.000000" stroke="none" 
	d="
M138.462143,71.058685 
	C138.153442,70.735023 138.108978,70.560982 138.026398,70.120102 
	C140.744781,69.951927 143.501251,70.050606 146.565857,70.630707 
	C144.907501,71.442162 142.941025,71.772186 140.974533,72.102203 
	C140.225143,71.804237 139.475754,71.506264 138.462143,71.058685 
z"/>
<path fill="#D4ECBE" opacity="1.000000" stroke="none" 
	d="
M141.096191,72.449974 
	C142.941025,71.772186 144.907501,71.442162 146.977249,70.756134 
	C147.514160,70.371704 147.947800,70.343300 148.706009,70.354492 
	C149.030563,70.394104 148.905380,70.810875 148.942017,71.025955 
	C147.113373,75.357689 144.271683,74.606583 141.096191,72.449974 
z"/>
<path fill="#286722" opacity="1.000000" stroke="none" 
	d="
M130.294830,54.750732 
	C129.783066,53.544071 129.513870,52.099270 129.329193,50.277725 
	C129.788300,51.438187 130.162842,52.975391 130.294830,54.750732 
z"/>
<path fill="#DAF5AF" opacity="1.000000" stroke="none" 
	d="
M159.098495,75.307663 
	C162.049850,77.429947 164.985901,79.940063 167.852798,82.526779 
	C169.413971,83.935379 170.857803,85.474014 172.707031,86.955154 
	C173.355408,87.442261 173.651337,87.928200 173.766586,88.922340 
	C174.640244,91.321091 175.694595,93.211647 176.748932,95.102196 
	C177.154556,96.823280 177.560196,98.544357 177.880524,100.644119 
	C173.793655,98.663231 170.357925,96.151810 168.734924,91.191719 
	C167.633926,87.826912 164.956909,84.495888 162.091446,82.333351 
	C159.510132,80.385239 158.713699,78.560478 159.098495,75.307663 
z"/>
<path fill="#A5CC8A" opacity="1.000000" stroke="none" 
	d="
M176.792267,94.754097 
	C175.694595,93.211647 174.640244,91.321091 173.801575,89.215042 
	C174.956696,90.801697 175.896149,92.603851 176.792267,94.754097 
z"/>
<path fill="#E4F4BD" opacity="1.000000" stroke="none" 
	d="
M178.923859,103.712097 
	C178.600189,103.820328 178.383102,103.591949 178.152328,103.075722 
	C178.371017,103.045418 178.668289,103.241287 178.923859,103.712097 
z"/>
<path fill="#B0D689" opacity="1.000000" stroke="none" 
	d="
M140.226242,186.797150 
	C138.954407,185.801514 138.025208,184.824051 137.039932,183.562317 
	C150.191681,181.695740 162.941437,178.703354 174.091537,170.959854 
	C176.253113,169.458679 178.221664,167.679581 180.624847,166.004242 
	C178.052658,169.205444 175.201477,172.495285 172.184845,175.625641 
	C170.949112,176.907944 169.355881,177.845703 167.873901,179.263702 
	C161.953217,181.349503 156.108856,183.202316 150.202774,184.831253 
	C147.704712,185.520218 145.076782,185.738251 142.219696,186.430084 
	C141.477295,186.731644 141.023071,186.773499 140.226242,186.797150 
z"/>
<path fill="#ADD67D" opacity="1.000000" stroke="none" 
	d="
M114.014030,200.854309 
	C112.506294,200.140701 110.998550,199.427109 109.375366,198.413910 
	C109.140671,196.373337 109.021431,194.632370 108.838081,191.955414 
	C110.680298,191.955414 112.966003,191.955414 115.627151,192.419098 
	C115.339737,195.539963 114.676880,198.197128 114.014030,200.854309 
z"/>
<path fill="#B0D689" opacity="1.000000" stroke="none" 
	d="
M114.368134,200.933014 
	C114.676880,198.197128 115.339737,195.539963 116.011581,192.497910 
	C120.932495,193.123352 117.092285,196.891708 118.169228,199.529205 
	C116.986000,200.313278 115.854111,200.662506 114.368134,200.933014 
z"/>
<path fill="#D2F3B5" opacity="1.000000" stroke="none" 
	d="
M180.008026,147.027649 
	C180.744446,145.030945 181.480881,143.034256 182.577698,141.023621 
	C182.938095,141.009689 183.314835,141.084564 183.504669,141.113861 
	C184.059479,142.853210 184.424438,144.563278 184.631836,146.851044 
	C184.857208,148.328644 185.240112,149.228546 185.623032,150.128448 
	C185.660172,151.443176 185.697311,152.757889 185.409637,154.467010 
	C184.765457,154.936386 184.443680,154.999069 183.808853,154.874908 
	C182.335526,153.131760 181.172867,151.563141 180.005966,149.745728 
	C180.001724,149.496948 179.996277,148.999222 179.998840,148.670441 
	C180.003616,147.903671 180.005829,147.465652 180.008026,147.027649 
z"/>
<path fill="#DEF6B0" opacity="1.000000" stroke="none" 
	d="
M180.010208,149.994507 
	C181.172867,151.563141 182.335526,153.131760 183.812347,155.145386 
	C184.356400,156.054718 184.586319,156.519073 184.816223,156.983414 
	C184.638229,157.801605 184.460236,158.619797 183.768066,159.720169 
	C182.610229,160.113342 181.966553,160.224335 181.118958,159.989075 
	C180.613434,156.426727 180.311829,153.210617 180.010208,149.994507 
z"/>
<path fill="#A5CC8A" opacity="1.000000" stroke="none" 
	d="
M181.322861,160.335327 
	C181.966553,160.224335 182.610229,160.113342 183.579102,159.971680 
	C183.736755,160.828827 183.569229,161.716629 183.121643,162.807449 
	C182.391876,162.815338 181.942154,162.620224 181.355103,161.941437 
	C181.252808,161.083618 181.287827,160.709473 181.322861,160.335327 
z"/>
<path fill="#A5CC8A" opacity="1.000000" stroke="none" 
	d="
M185.706421,149.789459 
	C185.240112,149.228546 184.857208,148.328644 184.677628,147.224487 
	C185.183914,147.830322 185.486847,148.640381 185.706421,149.789459 
z"/>
<path fill="#A5CC8A" opacity="1.000000" stroke="none" 
	d="
M185.095078,156.823273 
	C184.586319,156.519073 184.356400,156.054718 184.122986,155.319901 
	C184.443680,154.999069 184.765457,154.936386 185.331558,154.855438 
	C185.510147,155.454041 185.442032,156.058578 185.095078,156.823273 
z"/>
<path fill="#087C2C" opacity="1.000000" stroke="none" 
	d="
M90.010544,70.962547 
	C88.903427,71.628082 87.796303,72.293617 86.360382,73.009460 
	C81.750877,69.695419 78.192039,65.912048 77.507034,60.117805 
	C76.790115,54.053619 75.610260,48.035469 75.111519,41.957909 
	C74.868263,38.993587 75.610008,35.873131 79.764542,35.502037 
	C80.346855,39.291065 80.598145,42.673214 80.898804,46.361694 
	C81.281715,47.421738 81.615250,48.175457 81.707230,49.159157 
	C81.677330,50.576187 81.888969,51.763241 82.135071,53.336678 
	C83.729271,59.948925 84.339317,66.606720 90.010544,70.962547 
z"/>
<path fill="#42A952" opacity="1.000000" stroke="none" 
	d="
M80.849426,46.055363 
	C80.598145,42.673214 80.346855,39.291065 80.146317,35.461349 
	C80.999222,34.511665 81.801384,34.009548 82.803543,33.296616 
	C83.825493,33.307915 84.647430,33.530029 85.772499,33.868896 
	C86.591087,34.487656 87.106552,34.989666 87.352875,35.767071 
	C82.099777,38.134251 84.667717,42.569141 83.602890,45.999561 
	C82.423859,46.018887 81.636642,46.037125 80.849426,46.055363 
z"/>
<path fill="#B1DE74" opacity="1.000000" stroke="none" 
	d="
M78.951538,76.994301 
	C79.228378,77.691002 79.392006,78.104698 79.783104,78.761635 
	C79.805298,79.238029 79.585701,79.456810 78.869888,79.957138 
	C69.653122,87.575455 64.316948,96.932381 61.457932,108.050903 
	C58.335182,109.615082 58.492950,111.675636 59.984032,114.438843 
	C59.953049,117.249550 59.916378,119.616364 59.531944,122.083344 
	C55.960899,126.403412 56.810947,134.621323 60.966312,139.376999 
	C61.050541,140.477402 61.093273,141.212097 60.863876,142.146881 
	C58.054867,145.659668 59.734116,147.170532 63.034195,148.309616 
	C63.068336,149.033295 63.075966,149.447372 63.056679,150.205902 
	C63.735199,154.144913 60.339619,152.917343 58.685535,153.899963 
	C57.941402,153.209549 57.447681,152.651093 56.943218,151.792694 
	C56.633568,151.003876 56.334652,150.515030 56.020607,149.697784 
	C55.988499,148.931396 55.971516,148.493423 56.170982,147.850189 
	C55.653969,146.784256 54.920509,145.923553 54.141861,144.640045 
	C53.203125,140.798584 52.309586,137.379959 51.416046,133.961319 
	C51.330112,133.520309 51.244175,133.079300 51.382767,132.058884 
	C51.461128,130.326462 51.314972,129.173431 51.168812,128.020416 
	C51.067764,127.595085 50.966717,127.169754 51.106331,126.134514 
	C51.618782,120.034386 51.890568,114.544167 52.162354,109.053947 
	C52.421844,106.969627 52.681335,104.885315 52.888481,102.405548 
	C56.265820,95.606308 59.695496,89.202507 63.196083,82.453064 
	C66.655952,78.834351 70.044914,75.561279 73.709320,72.097763 
	C75.602615,73.508659 77.220474,75.109985 78.951538,76.994301 
z"/>
<path fill="#56AD46" opacity="1.000000" stroke="none" 
	d="
M83.994720,45.998474 
	C84.667717,42.569141 82.099777,38.134251 87.452408,36.021301 
	C88.140732,36.726868 88.460403,37.453590 88.666779,38.705620 
	C88.710632,40.928955 88.535873,42.742935 89.081673,44.305187 
	C91.620697,51.572746 94.359131,58.770641 97.026215,65.993462 
	C96.885277,66.569534 96.744339,67.145615 96.038803,67.745331 
	C94.115982,66.590408 92.178513,65.675400 91.501305,64.186989 
	C88.786751,58.220768 86.462990,52.076748 83.994720,45.998474 
z"/>
<path fill="#46AB53" opacity="1.000000" stroke="none" 
	d="
M83.602890,45.999561 
	C86.462990,52.076748 88.786751,58.220768 91.501305,64.186989 
	C92.178513,65.675400 94.115982,66.590408 95.791100,67.922752 
	C94.276779,69.100456 92.445564,70.124382 90.312447,71.055420 
	C84.339317,66.606720 83.729271,59.948925 82.350937,53.116695 
	C82.337822,51.316608 82.143295,50.122894 81.948776,48.929176 
	C81.615250,48.175457 81.281715,47.421738 80.898804,46.361694 
	C81.636642,46.037125 82.423859,46.018887 83.602890,45.999561 
z"/>
<path fill="#9BDE87" opacity="1.000000" stroke="none" 
	d="
M97.338791,65.981277 
	C94.359131,58.770641 91.620697,51.572746 89.081673,44.305187 
	C88.535873,42.742935 88.710632,40.928955 88.834282,38.955589 
	C91.768723,43.454868 94.422348,48.229488 97.390930,53.169350 
	C98.450226,56.935429 99.194557,60.536266 99.914047,64.558037 
	C99.143257,65.309013 98.397308,65.639053 97.338791,65.981277 
z"/>
<path fill="#9CCB6F" opacity="1.000000" stroke="none" 
	d="
M56.953957,152.092651 
	C57.447681,152.651093 57.941402,153.209549 58.801552,154.264618 
	C61.167316,155.188248 63.166653,155.615265 65.162415,156.370026 
	C65.159554,157.134216 65.160255,157.570648 65.160965,158.007080 
	C65.083199,158.510025 65.005424,159.012955 64.816261,159.881042 
	C63.397778,160.850616 62.090687,161.455063 60.533749,162.175064 
	C59.188358,159.934967 57.505444,157.132889 55.551296,154.139359 
	C54.912151,152.199234 54.544239,150.450562 54.518608,148.326859 
	C55.225433,147.986359 55.589985,148.020905 55.954536,148.055435 
	C55.971516,148.493423 55.988499,148.931396 56.043716,149.990692 
	C56.372616,151.105545 56.663288,151.599091 56.953957,152.092651 
z"/>
<path fill="#9CCB6F" opacity="1.000000" stroke="none" 
	d="
M51.797512,109.253166 
	C51.890568,114.544167 51.618782,120.034386 51.032768,125.814713 
	C50.956581,120.554016 51.194626,115.003197 51.797512,109.253166 
z"/>
<path fill="#9CCB6F" opacity="1.000000" stroke="none" 
	d="
M51.336052,134.384918 
	C52.309586,137.379959 53.203125,140.798584 54.094543,144.886154 
	C54.066505,145.720383 54.040588,145.885696 53.822227,146.043884 
	C53.629784,146.036743 53.244629,146.035217 53.244629,146.035217 
	C52.581772,142.292984 51.918915,138.550735 51.336052,134.384918 
z"/>
<path fill="#BBDF7B" opacity="1.000000" stroke="none" 
	d="
M54.014675,146.051010 
	C54.040588,145.885696 54.066505,145.720383 54.139736,145.308960 
	C54.920509,145.923553 55.653969,146.784256 56.170982,147.850189 
	C55.589985,148.020905 55.225433,147.986359 54.586029,147.945114 
	C54.311169,147.938400 54.110352,147.511688 54.054493,147.033539 
	C54.003983,146.387268 54.009331,146.219147 54.014675,146.051010 
z"/>
<path fill="#9CCB6F" opacity="1.000000" stroke="none" 
	d="
M51.096611,128.411896 
	C51.314972,129.173431 51.461128,130.326462 51.411842,131.721497 
	C51.152401,130.910126 51.088406,129.856766 51.096611,128.411896 
z"/>
<path fill="#B1DE74" opacity="1.000000" stroke="none" 
	d="
M53.822227,146.043884 
	C54.009331,146.219147 54.003983,146.387268 53.987091,146.807587 
	C53.705563,146.884293 53.435577,146.708832 53.205109,146.284302 
	C53.244629,146.035217 53.629784,146.036743 53.822227,146.043884 
z"/>
<path fill="#147231" opacity="1.000000" stroke="none" 
	d="
M102.030533,34.993179 
	C102.693283,31.615978 103.356033,28.238779 104.038841,24.467848 
	C109.249763,17.461065 113.466705,16.321558 118.578415,20.490177 
	C116.902061,21.277637 115.479927,21.656860 113.804771,21.849384 
	C112.878548,21.322121 111.800301,20.523956 111.591858,20.708462 
	C107.297028,24.509972 103.175163,28.462164 103.670029,34.998077 
	C102.904770,34.996876 102.467659,34.995029 102.030533,34.993179 
z"/>
<path fill="#46AB53" opacity="1.000000" stroke="none" 
	d="
M114.057793,22.036083 
	C115.479927,21.656860 116.902061,21.277637 118.695541,20.830282 
	C119.727425,21.564716 120.387978,22.367283 121.039246,23.484612 
	C120.885872,24.111691 120.741791,24.424002 120.059387,24.913940 
	C118.682442,25.730104 117.843796,26.368643 117.002594,27.003830 
	C117.000038,27.000481 117.007721,27.007849 117.007721,27.007849 
	C115.310951,28.298351 113.614189,29.588856 111.552811,30.562656 
	C112.144730,27.509331 113.101257,24.772707 114.057793,22.036083 
z"/>
<path fill="#087531" opacity="1.000000" stroke="none" 
	d="
M102.018692,35.436420 
	C102.467659,34.995029 102.904770,34.996876 103.986328,35.171883 
	C106.707718,35.895996 108.784660,36.446945 110.903076,37.413368 
	C110.922539,39.218540 110.900536,40.608242 110.520065,42.069069 
	C109.422432,43.478432 108.087303,44.798183 108.045120,46.158043 
	C107.840172,52.765568 107.981560,59.383835 108.000305,65.998299 
	C102.975327,66.255791 105.137032,61.001606 102.451614,59.102985 
	C101.754776,56.254166 101.396690,53.507385 101.021057,50.346840 
	C101.337959,45.248600 101.672401,40.564129 102.018692,35.436420 
z"/>
<path fill="#121310" opacity="1.000000" stroke="none" 
	d="
M86.379532,129.852127 
	C86.321625,127.562782 86.263710,125.273438 86.607414,122.400871 
	C88.947601,109.814697 105.231300,102.214706 116.754715,109.984100 
	C125.146278,115.641907 129.228714,127.143410 120.649803,138.233902 
	C114.682838,145.947784 100.914078,146.915924 93.605331,139.681122 
	C90.750710,136.855362 88.762405,133.154434 86.379532,129.852127 
M94.192909,119.876869 
	C91.921249,124.599167 93.431114,128.534027 97.513153,131.024155 
	C100.863579,133.067993 104.785149,133.209900 108.027931,130.168365 
	C112.196167,126.258835 112.257767,120.883568 108.259254,117.047539 
	C104.346092,113.293404 98.922287,114.139740 94.192909,119.876869 
M117.141212,136.188019 
	C117.150513,135.525970 117.443466,134.589523 117.117119,134.252167 
	C116.042160,133.140961 114.399239,131.215118 113.600632,131.481247 
	C111.876404,132.055832 110.541306,133.798157 109.047005,135.062714 
	C110.406288,136.299713 111.593460,137.976624 113.192009,138.602066 
	C114.093216,138.954666 115.672203,137.574875 117.141212,136.188019 
z"/>
<path fill="#DEE8C4" opacity="1.000000" stroke="none" 
	d="
M86.086525,130.070450 
	C88.762405,133.154434 90.750710,136.855362 93.605331,139.681122 
	C100.914078,146.915924 114.682838,145.947784 120.649803,138.233902 
	C129.228714,127.143410 125.146278,115.641907 116.754715,109.984100 
	C105.231300,102.214706 88.947601,109.814697 86.679977,121.976791 
	C84.333908,117.753983 86.658852,110.072189 90.521469,107.685364 
	C95.957787,104.326126 101.363182,101.318825 107.929443,104.760689 
	C108.469650,105.043854 109.244331,105.002716 109.891891,104.935974 
	C112.237167,104.694252 115.643196,103.260056 116.721458,104.291275 
	C120.454163,107.861137 124.105736,111.903618 126.447006,116.455986 
	C130.693954,124.713776 130.545059,133.016846 123.036591,139.771957 
	C121.062286,141.548172 118.597443,142.834320 116.224792,144.095062 
	C114.333885,145.099838 111.889549,145.298233 110.308327,146.602905 
	C106.749252,149.539505 103.352730,149.034317 99.013306,147.049255 
	C96.864174,146.323257 95.432549,145.657791 94.000916,144.992340 
	C89.577995,142.133835 86.774414,138.109161 85.565186,133.013351 
	C85.365219,132.170670 85.703819,131.200195 86.086525,130.070450 
z"/>
<path fill="#E1F6AE" opacity="1.000000" stroke="none" 
	d="
M61.794106,107.973419 
	C64.316948,96.932381 69.653122,87.575455 78.687775,80.101868 
	C77.218658,83.160904 75.451309,86.371979 73.680229,89.580994 
	C72.785431,91.202255 71.655991,92.736130 71.025574,94.453743 
	C68.542709,101.218460 66.215096,108.040169 63.831852,114.841431 
	C63.560970,115.614449 63.053982,116.399200 63.076641,117.166100 
	C63.321358,125.448395 63.587193,133.731583 64.030319,142.004715 
	C64.090652,143.131073 64.948380,144.949432 65.784035,145.177933 
	C70.493507,146.465698 71.073280,150.158630 71.503601,153.931274 
	C70.139900,155.178009 68.827827,156.377548 67.154976,157.561340 
	C66.539894,157.117554 66.285583,156.689514 66.014954,155.873718 
	C65.026955,153.611130 64.055275,151.736298 63.083591,149.861465 
	C63.075966,149.447372 63.068336,149.033295 63.040192,147.936371 
	C62.391785,145.484634 61.763897,143.715714 61.136009,141.946808 
	C61.093273,141.212097 61.050541,140.477402 60.983086,138.949982 
	C60.598808,132.765900 60.239258,127.374542 59.879707,121.983185 
	C59.916378,119.616364 59.953049,117.249550 60.240280,114.196960 
	C60.925266,111.665260 61.359684,109.819344 61.794106,107.973419 
z"/>
<path fill="#EDF0B3" opacity="1.000000" stroke="none" 
	d="
M93.740540,145.199463 
	C95.432549,145.657791 96.864174,146.323257 98.644165,147.000732 
	C99.573120,147.956116 99.945251,149.176147 100.768997,149.796860 
	C105.282799,153.198135 105.725693,157.534882 104.316788,162.605438 
	C103.308220,166.235184 101.547607,169.060867 97.491829,167.880493 
	C93.587959,166.744308 88.956940,165.508057 86.497086,162.695999 
	C83.703346,159.502274 86.485352,151.710861 90.163979,148.361633 
	C91.258720,147.364929 92.374191,146.390991 93.740540,145.199463 
M90.316063,161.503281 
	C90.852715,161.692291 91.389374,161.881302 92.175591,162.774490 
	C94.680588,164.544281 97.059975,165.146484 99.514160,162.011383 
	C99.514160,162.011383 99.987984,161.979980 100.719849,161.791687 
	C101.096077,159.969009 102.357048,157.623352 101.656052,156.437424 
	C100.374687,154.269653 97.988281,151.451309 95.960526,151.367142 
	C93.567070,151.267822 90.632225,153.380402 88.814171,155.348755 
	C88.039696,156.187256 89.501854,159.091599 90.316063,161.503281 
z"/>
<path fill="#D0F29C" opacity="1.000000" stroke="none" 
	d="
M125.950607,154.163025 
	C131.329666,150.183228 141.601517,147.761459 146.778900,152.081848 
	C149.020233,150.948807 150.033356,145.384689 153.552567,150.470673 
	C152.294479,151.514160 150.674149,152.113846 150.585068,152.889404 
	C150.043030,157.608521 146.672241,157.909073 142.696014,158.072754 
	C138.076324,158.348129 133.884552,158.661179 129.704315,158.648071 
	C128.772186,157.562317 127.828560,156.802719 127.123444,155.999756 
	C127.577370,155.762894 127.792786,155.569397 128.008209,155.375885 
	C127.386215,155.262650 126.764221,155.149399 126.063461,154.824646 
	C125.984695,154.613144 125.950607,154.163025 125.950607,154.163025 
z"/>
<path fill="#EDF0B3" opacity="1.000000" stroke="none" 
	d="
M181.118958,159.989075 
	C181.287827,160.709473 181.252808,161.083618 181.194031,161.740570 
	C178.027496,163.342896 174.884735,164.662415 171.372803,165.992126 
	C166.680298,163.397186 164.464386,159.350327 164.049316,154.535904 
	C163.857101,152.306381 164.191986,148.828888 165.586609,147.928299 
	C168.092911,146.309845 171.557755,146.082153 174.670364,145.562698 
	C175.441284,145.434036 176.397354,146.414841 177.695038,147.256531 
	C178.746582,148.084702 179.371429,148.541962 179.996277,148.999222 
	C179.996277,148.999222 180.001724,149.496948 180.005966,149.745728 
	C180.311829,153.210617 180.613434,156.426727 181.118958,159.989075 
M171.665237,160.375809 
	C176.241791,160.790909 177.027695,157.265701 176.748947,154.305145 
	C176.545670,152.146500 174.304230,150.179779 172.971405,148.127502 
	C171.347473,149.266449 168.379227,150.387573 168.363861,151.547821 
	C168.325211,154.464706 165.561523,158.731079 171.665237,160.375809 
z"/>
<path fill="#52733B" opacity="1.000000" stroke="none" 
	d="
M126.884926,156.043121 
	C127.828560,156.802719 128.772186,157.562317 129.357422,158.610397 
	C127.653099,159.576935 126.307175,160.254990 124.961250,160.933044 
	C123.657021,161.936203 122.352798,162.939362 121.048569,163.942535 
	C120.702248,163.663162 120.355927,163.383804 120.009598,163.104431 
	C120.363174,162.184692 120.788460,161.285172 121.054710,160.340805 
	C121.539803,158.620285 122.007774,156.887390 122.330788,155.131653 
	C122.514702,154.132019 122.397507,153.076996 122.415909,152.046906 
	C123.404938,152.663483 124.393967,153.280060 125.666801,154.029846 
	C125.950607,154.163025 125.984695,154.613144 126.053040,155.064026 
	C126.284805,155.822647 126.539322,155.998703 126.884926,156.043121 
z"/>
<path fill="#456729" opacity="1.000000" stroke="none" 
	d="
M143.123947,158.110397 
	C146.672241,157.909073 150.043030,157.608521 150.585068,152.889404 
	C150.674149,152.113846 152.294479,151.514160 153.608643,150.793442 
	C157.044113,152.439880 156.613342,154.400192 153.994293,156.807739 
	C153.355453,157.418762 153.186890,157.718491 153.018311,158.018234 
	C150.581787,158.855728 148.145264,159.693207 145.271088,160.249725 
	C144.263611,159.349319 143.693787,158.729858 143.123947,158.110397 
z"/>
<path fill="#8EAE74" opacity="1.000000" stroke="none" 
	d="
M142.696014,158.072754 
	C143.693787,158.729858 144.263611,159.349319 144.860703,160.293259 
	C138.558990,160.689194 132.230026,160.760651 125.431152,160.882568 
	C126.307175,160.254990 127.653099,159.576935 129.345917,158.936554 
	C133.884552,158.661179 138.076324,158.348129 142.696014,158.072754 
z"/>
<path fill="#DEF6B0" opacity="1.000000" stroke="none" 
	d="
M163.988403,101.633301 
	C162.536118,103.020439 161.072296,104.035843 159.312500,105.019882 
	C159.230362,102.132133 159.444168,99.275757 159.657990,96.419373 
	C160.328445,96.293282 160.998901,96.167198 161.669357,96.041107 
	C162.438522,97.781258 163.207672,99.521416 163.988403,101.633301 
z"/>
<path fill="#DAF5AF" opacity="1.000000" stroke="none" 
	d="
M157.153412,73.075966 
	C157.767273,73.239876 158.384308,73.749359 159.053925,74.564667 
	C158.456528,74.387505 157.806564,73.904518 157.153412,73.075966 
z"/>
<path fill="#DEF6B0" opacity="1.000000" stroke="none" 
	d="
M179.998840,148.670441 
	C179.371429,148.541962 178.746582,148.084702 178.067230,147.318604 
	C178.456024,147.010681 178.899323,147.011581 179.675323,147.020065 
	C180.005829,147.465652 180.003616,147.903671 179.998840,148.670441 
z"/>
<path fill="#DBF0BB" opacity="1.000000" stroke="none" 
	d="
M66.031273,156.261475 
	C66.285583,156.689514 66.539894,157.117554 66.890755,157.774933 
	C66.581123,158.003586 66.174934,158.002884 65.464851,158.004639 
	C65.160255,157.570648 65.159554,157.134216 65.380524,156.414581 
	C65.602211,156.131393 66.031273,156.261475 66.031273,156.261475 
z"/>
<path fill="#8EAE74" opacity="1.000000" stroke="none" 
	d="
M153.225800,157.900574 
	C153.186890,157.718491 153.355453,157.418762 153.801636,157.107544 
	C153.932037,157.389053 153.716705,157.617996 153.225800,157.900574 
z"/>
<path fill="#D4ECBE" opacity="1.000000" stroke="none" 
	d="
M150.227814,71.784058 
	C150.220261,71.589714 150.592010,71.691071 150.780045,71.730682 
	C150.723846,71.839676 150.479614,71.909042 150.227814,71.784058 
z"/>
<path fill="#DBF0BB" opacity="1.000000" stroke="none" 
	d="
M78.488510,152.478806 
	C78.517471,152.465500 78.459541,152.492111 78.488510,152.478806 
z"/>
<path fill="#56AD46" opacity="1.000000" stroke="none" 
	d="
M147.822876,38.127563 
	C148.429443,44.992016 148.712952,52.032368 148.936722,59.538525 
	C144.271500,57.716587 142.137695,53.181686 144.478745,48.804642 
	C146.003967,45.952927 147.496078,43.558121 146.278854,40.249172 
	C146.117218,39.809780 147.065552,38.962074 147.822876,38.127563 
z"/>
<path fill="#B0D689" opacity="1.000000" stroke="none" 
	d="
M125.641953,184.157379 
	C125.622887,185.035370 125.225525,185.853668 124.828156,186.671967 
	C124.226822,186.078674 123.625481,185.485397 123.001160,184.563248 
	C123.739998,184.188828 124.501831,184.143265 125.641953,184.157379 
z"/>
<path fill="#B0D689" opacity="1.000000" stroke="none" 
	d="
M134.648605,183.248520 
	C133.845673,183.734146 132.688431,184.143951 131.298676,184.340546 
	C132.142197,183.809113 133.218246,183.490906 134.648605,183.248520 
z"/>
<path fill="#B0D689" opacity="1.000000" stroke="none" 
	d="
M114.703644,183.859238 
	C113.684624,184.031723 112.431801,183.939835 111.087036,183.553345 
	C112.153336,183.370773 113.311584,183.482834 114.703644,183.859238 
z"/>
<path fill="#087C2C" opacity="1.000000" stroke="none" 
	d="
M108.289398,66.254700 
	C107.981560,59.383835 107.840172,52.765568 108.045120,46.158043 
	C108.087303,44.798183 109.422432,43.478432 110.565651,42.467484 
	C111.039520,43.859390 111.109344,44.924007 111.179169,45.988628 
	C111.171394,46.438046 111.163620,46.887459 111.150620,48.067490 
	C111.437454,50.528130 111.729507,52.258156 112.021553,53.988182 
	C112.039337,54.437943 112.057121,54.887699 112.074753,56.069218 
	C113.096405,59.762768 114.118187,62.724564 115.139977,65.686356 
	C112.952812,65.961266 110.765648,66.236183 108.289398,66.254700 
z"/>
<path fill="#087C2C" opacity="1.000000" stroke="none" 
	d="
M110.861610,36.997894 
	C108.784660,36.446945 106.707718,35.895996 104.314468,35.171238 
	C103.175163,28.462164 107.297028,24.509972 111.591858,20.708462 
	C111.800301,20.523956 112.878548,21.322121 113.804771,21.849384 
	C113.101257,24.772707 112.144730,27.509331 111.249893,30.626762 
	C111.248177,31.756363 111.184761,32.505154 111.092163,34.001274 
	C110.995857,35.498367 110.928734,36.248131 110.861610,36.997894 
z"/>
<path fill="#4CAE3D" opacity="1.000000" stroke="none" 
	d="
M121.906715,35.607948 
	C120.756432,37.824097 119.624802,39.652454 118.244987,41.739464 
	C117.666618,37.310898 117.336433,32.623684 117.006989,27.472158 
	C117.007721,27.007849 117.000038,27.000481 117.390526,27.002882 
	C118.559967,27.002699 119.338928,27.000114 120.117889,26.997528 
	C120.720383,29.738407 121.322876,32.479282 121.906715,35.607948 
z"/>
<path fill="#46AB53" opacity="1.000000" stroke="none" 
	d="
M115.551346,65.747856 
	C114.118187,62.724564 113.096405,59.762768 112.116257,56.404312 
	C113.224113,56.915749 114.404198,57.721394 115.332733,58.753365 
	C117.240959,60.874172 119.014572,63.116104 120.919945,65.642868 
	C119.318443,65.921486 117.640579,65.865425 115.551346,65.747856 
z"/>
<path fill="#46AB53" opacity="1.000000" stroke="none" 
	d="
M110.903076,37.413368 
	C110.928734,36.248131 110.995857,35.498367 111.122528,34.376995 
	C114.523178,37.725246 113.313347,41.720421 111.535225,45.858532 
	C111.109344,44.924007 111.039520,43.859390 110.924118,42.396355 
	C110.900536,40.608242 110.922539,39.218540 110.903076,37.413368 
z"/>
<path fill="#46AB53" opacity="1.000000" stroke="none" 
	d="
M112.277260,53.768589 
	C111.729507,52.258156 111.437454,50.528130 111.200417,48.401382 
	C115.089333,49.067478 114.004547,51.263676 112.277260,53.768589 
z"/>
<path fill="#4AAE4E" opacity="1.000000" stroke="none" 
	d="
M120.143883,26.677616 
	C119.338928,27.000114 118.559967,27.002699 117.393082,27.006231 
	C117.843796,26.368643 118.682442,25.730104 119.860291,25.083580 
	C120.189621,25.502962 120.179756,25.930332 120.143883,26.677616 
z"/>
<path fill="#42A952" opacity="1.000000" stroke="none" 
	d="
M81.707230,49.159157 
	C82.143295,50.122894 82.337822,51.316608 82.316475,52.730309 
	C81.888969,51.763241 81.677330,50.576187 81.707230,49.159157 
z"/>
<path fill="#BBDF7B" opacity="1.000000" stroke="none" 
	d="
M59.531944,122.083344 
	C60.239258,127.374542 60.598808,132.765900 60.941589,138.584290 
	C56.810947,134.621323 55.960899,126.403412 59.531944,122.083344 
z"/>
<path fill="#BBDF7B" opacity="1.000000" stroke="none" 
	d="
M66.014954,155.873718 
	C66.031273,156.261475 65.602211,156.131393 65.384102,156.086823 
	C63.166653,155.615265 61.167316,155.188248 59.051964,154.396606 
	C60.339619,152.917343 63.735199,154.144913 63.056679,150.205902 
	C64.055275,151.736298 65.026955,153.611130 66.014954,155.873718 
z"/>
<path fill="#BBDF7B" opacity="1.000000" stroke="none" 
	d="
M60.863876,142.146881 
	C61.763897,143.715714 62.391785,145.484634 63.013680,147.626785 
	C59.734116,147.170532 58.054867,145.659668 60.863876,142.146881 
z"/>
<path fill="#BBDF7B" opacity="1.000000" stroke="none" 
	d="
M61.457932,108.050903 
	C61.359684,109.819344 60.925266,111.665260 60.234596,113.753067 
	C58.492950,111.675636 58.335182,109.615082 61.457932,108.050903 
z"/>
<path fill="#BBDF7B" opacity="1.000000" stroke="none" 
	d="
M56.943218,151.792694 
	C56.663288,151.599091 56.372616,151.105545 56.058842,150.319077 
	C56.334652,150.515030 56.633568,151.003876 56.943218,151.792694 
z"/>
<path fill="#EEEDEE" opacity="1.000000" stroke="none" 
	d="
M94.362030,119.533279 
	C98.922287,114.139740 104.346092,113.293404 108.259254,117.047539 
	C112.257767,120.883568 112.196167,126.258835 108.027931,130.168365 
	C104.785149,133.209900 100.863579,133.067993 97.513153,131.024155 
	C93.431114,128.534027 91.921249,124.599167 94.362030,119.533279 
z"/>
<path fill="#D1D1CF" opacity="1.000000" stroke="none" 
	d="
M117.043549,136.581757 
	C115.672203,137.574875 114.093216,138.954666 113.192009,138.602066 
	C111.593460,137.976624 110.406288,136.299713 109.047005,135.062714 
	C110.541306,133.798157 111.876404,132.055832 113.600632,131.481247 
	C114.399239,131.215118 116.042160,133.140961 117.117119,134.252167 
	C117.443466,134.589523 117.150513,135.525970 117.043549,136.581757 
z"/>
<path fill="#F2D884" opacity="1.000000" stroke="none" 
	d="
M91.926025,162.070312 
	C91.389374,161.881302 90.852715,161.692291 90.151520,160.888046 
	C91.328888,158.252380 92.336845,155.780014 94.170509,154.425079 
	C94.947380,153.851013 98.051758,155.175568 99.017647,156.453781 
	C100.021233,157.781891 99.719109,160.096680 99.987984,161.979980 
	C99.987984,161.979980 99.514160,162.011383 98.832657,162.011963 
	C96.076103,162.031799 94.001068,162.051056 91.926025,162.070312 
z"/>
<path fill="#EDE095" opacity="1.000000" stroke="none" 
	d="
M100.353912,161.885834 
	C99.719109,160.096680 100.021233,157.781891 99.017647,156.453781 
	C98.051758,155.175568 94.947380,153.851013 94.170509,154.425079 
	C92.336845,155.780014 91.328888,158.252380 89.967293,160.664978 
	C89.501854,159.091599 88.039696,156.187256 88.814171,155.348755 
	C90.632225,153.380402 93.567070,151.267822 95.960526,151.367142 
	C97.988281,151.451309 100.374687,154.269653 101.656052,156.437424 
	C102.357048,157.623352 101.096077,159.969009 100.353912,161.885834 
z"/>
<path fill="#EDE095" opacity="1.000000" stroke="none" 
	d="
M92.050812,162.422394 
	C94.001068,162.051056 96.076103,162.031799 98.595543,162.024277 
	C97.059975,165.146484 94.680588,164.544281 92.050812,162.422394 
z"/>
<path fill="#E4F4BD" opacity="1.000000" stroke="none" 
	d="
M127.123444,155.999756 
	C126.539322,155.998703 126.284805,155.822647 126.131798,155.275543 
	C126.764221,155.149399 127.386215,155.262650 128.008209,155.375885 
	C127.792786,155.569397 127.577370,155.762894 127.123444,155.999756 
z"/>
<path fill="#ECDB92" opacity="1.000000" stroke="none" 
	d="
M171.294144,160.262268 
	C165.561523,158.731079 168.325211,154.464706 168.363861,151.547821 
	C168.379227,150.387573 171.347473,149.266449 172.971405,148.127502 
	C174.304230,150.179779 176.545670,152.146500 176.748947,154.305145 
	C177.027695,157.265701 176.241791,160.790909 171.294144,160.262268 
z"/>
</svg>